<svg width="60" height="61" viewBox="0 0 60 61" fill="none" xmlns="http://www.w3.org/2000/svg">
<path fill-rule="evenodd" clip-rule="evenodd" d="M1.2508 40.3C0.175622 35.789 2.41993 31.3792 3.59923 26.8968C4.79227 22.3622 5.31517 17.6441 8.20115 13.8827C11.4731 9.61835 15.7935 6.14567 20.952 4.28076C26.7962 2.16793 34.5247 -1.29576 39.234 2.66357C44.4636 7.06034 38.3242 16.5043 42.1346 22.0901C45.8277 27.5039 58.7332 25.3703 59.1296 31.8295C59.5195 38.1813 47.7301 37.9841 43.4051 42.7879C40.1761 46.3743 41.4251 52.4951 37.7122 55.6179C33.6774 59.0115 28.01 60.9067 22.6934 60.208C17.4031 59.5127 13.4083 55.4887 9.56309 51.9187C5.97371 48.5862 2.3651 44.9752 1.2508 40.3Z" fill="#fff"/>
</svg>
